<svg xmlns="http://www.w3.org/2000/svg" xmlns:xlink="http://www.w3.org/1999/xlink" id="Capa_1" x="0" y="0" enable-background="new 0 0 512 512" version="1.1" viewBox="0 0 512 512" xml:space="preserve"><g><path fill="#032E68" d="M255,512h-30c-3.984,0-7.793-1.582-10.605-4.395l-30-30c-4.57-4.57-5.698-11.543-2.813-17.314l30-60 c3.721-7.412,12.7-10.4,20.127-6.709c7.412,3.706,10.415,12.715,6.709,20.127l-25.166,50.332L231.211,482H255 c8.291,0,15,6.709,15,15S263.291,512,255,512z"/><path fill="#032E68" d="M345,512h-30c-3.984,0-7.793-1.582-10.605-4.395l-30-30c-4.57-4.57-5.698-11.543-2.813-17.314l30-60 c3.721-7.412,12.729-10.4,20.127-6.709c7.412,3.706,10.415,12.715,6.709,20.127l-25.166,50.332L321.211,482H345 c8.291,0,15,6.709,15,15S353.291,512,345,512z"/></g><path fill="#063E8B" d="M46.972,422L2.52,488.68c-3.369,5.054-3.354,11.631,0.015,16.67C5.361,509.554,10.063,512,15,512	c0.981,0,1.963-0.088,2.944-0.293l56.968-11.396c39.981-7.989,70.098-39.261,77.51-78.311l-12.93-30H92.12L46.972,422z"/><path fill="#032E68" d="M497,150h-92c-8.291,0-15-6.709-15-15V75c0-8.291,6.709-15,15-15h31c41.353,0,76,33.647,76,75	C512,143.291,505.291,150,497,150z"/><path fill="#063E8B" d="M330,0c-49.629,0-90,40.371-90,90v40.459l-60,150V422h105c74.443,0,135-62.557,135-137V90	C420,40.371,379.629,0,330,0z"/><circle cx="345" cy="75" r="15" fill="#FE9923"/><path fill="#0A4EAF" d="M267.001,126c-3.001-3.9-7.5-6.301-12.301-6c-5.099,0-9.6,2.699-12.299,6.599L47.1,422h135.899	c30.601,0,60-13.801,79.501-37.8C322.5,309.8,324.3,202.5,267.001,126z"/><path fill="#032E68" d="M240,255c0,61.5-30.601,120.5-81.599,154.399L139.501,422H85.499l56.4-37.5	C184.501,356,210,306.299,210,255c0-8.401,6.599-15,15-15S240,246.599,240,255z"/></svg>