<?xml version="1.0" encoding="iso-8859-1"?>
<!-- Generator: Adobe Illustrator 19.0.0, SVG Export Plug-In . SVG Version: 6.00 Build 0)  -->
<svg xmlns="http://www.w3.org/2000/svg" xmlns:xlink="http://www.w3.org/1999/xlink" version="1.1" id="Capa_1" x="0px" y="0px" viewBox="0 0 512 512" style="enable-background:new 0 0 512 512;" xml:space="preserve" width="512px" height="512px">
<g>
	<g>
		<circle cx="345" cy="75" r="15" fill="#10236e"/>
	</g>
</g>
<g>
	<g>
		<path d="M435,60h-20.148C402.469,25.08,369.111,0,330,0c-49.626,0-90,40.374-90,90v40.472    C83.821,365.608,17.41,466.217,2.498,488.71c-3.349,5.051-3.329,11.62,0.049,16.651c3.385,5.04,9.468,7.534,15.394,6.346    l56.975-11.394c39.131-7.826,69.967-39.246,77.637-79.313c38.455,0,26.085,0,48.354,0l-19.367,39.38    c-2.833,5.761-1.686,12.687,2.854,17.226l30,30C217.207,510.419,221.022,512,225,512h30c8.284,0,15-6.716,15-15s-6.716-15-15-15    h-23.787l-18.015-18.015L234.339,421H285c2.003,0,3.994-0.053,5.975-0.14l-19.436,39.52c-2.833,5.761-1.686,12.687,2.854,17.226    l30,30C307.207,510.419,311.022,512,315,512h30c8.284,0,15-6.716,15-15s-6.716-15-15-15h-23.787l-18.015-18.015l24.555-49.928    C381.302,396.133,420,345.503,420,286V150h77c8.284,0,15-6.716,15-15C512,93.527,476.478,60,435,60z M69.033,470.896    l-21.593,4.318L83.383,420.9h38.408C114.889,445.772,94.541,465.794,69.033,470.896z M182.906,391h-2.26    C218.22,356.599,240,307.875,240,256c0-8.284-6.716-15-15-15s-15,6.716-15,15c0,51.329-25.497,98.97-68.205,127.442L130.458,391    h-27.186l151.714-228.833c36.473,63.301,31.139,143.415-15.403,201.593C225.733,381.072,205.076,391,182.906,391z M390,286    c0,57.897-47.103,105-105,105h-29.592c2.668-2.673,5.207-5.507,7.601-8.499c28.745-35.931,44.971-81.236,45.69-127.569    c0.693-44.62-13.023-88.733-38.699-124.814V90c0-33.084,26.916-60,60-60s60,26.916,60,60C390,92.556,390,284.194,390,286z     M420,120V90h15c20.016,0,37.59,12.718,44.206,30H420z" fill="#10236e"/>
	</g>
</g>
<g>
</g>
<g>
</g>
<g>
</g>
<g>
</g>
<g>
</g>
<g>
</g>
<g>
</g>
<g>
</g>
<g>
</g>
<g>
</g>
<g>
</g>
<g>
</g>
<g>
</g>
<g>
</g>
<g>
</g>
</svg>
