<svg xmlns="http://www.w3.org/2000/svg" xmlns:xlink="http://www.w3.org/1999/xlink" id="Layer_1" x="0" y="0" enable-background="new 0 0 499.6 499.6" version="1.1" viewBox="0 0 499.6 499.6" xml:space="preserve"><circle cx="249.6" cy="250" r="249.6" fill="#063F66"/><path fill="#022730" d="M72.8,73.2c97.6-97.6,256-97.6,353.6,0s97.6,256,0,353.6"/><g><ellipse cx="133.6" cy="425.2" fill="#DCF9F6" rx="2.4" ry="21.6"/><ellipse cx="133.6" cy="426" fill="#DCF9F6" rx="21.6" ry="2.4"/><ellipse cx="426.474" cy="150.981" fill="#DCF9F6" rx="21.6" ry="2.4" transform="matrix(0.7054 -0.7088 0.7088 0.7054 18.6212 346.765)"/><ellipse cx="426.225" cy="151.245" fill="#DCF9F6" rx="21.6" ry="2.4" transform="matrix(0.7054 0.7088 -0.7088 0.7054 232.7671 -257.5539)"/><ellipse cx="366.4" cy="84.4" fill="#DCF9F6" rx=".8" ry="9.6"/><ellipse cx="366.4" cy="84.4" fill="#DCF9F6" rx="9.6" ry=".8"/><ellipse cx="178.387" cy="102.907" fill="#DCF9F6" rx="10.4" ry=".8" transform="matrix(-0.7107 -0.7035 0.7035 -0.7107 232.771 301.5383)"/><ellipse cx="178.491" cy="102.742" fill="#DCF9F6" rx="10.4" ry=".8" transform="matrix(0.7107 -0.7035 0.7035 0.7107 -20.6411 155.2913)"/><ellipse cx="96.571" cy="365.441" fill="#DCF9F6" rx="10.4" ry=".8" transform="matrix(-0.7089 -0.7053 0.7053 -0.7089 -92.7171 692.6153)"/><ellipse cx="97.139" cy="365.198" fill="#DCF9F6" rx="10.4" ry=".8" transform="matrix(0.7089 -0.7053 0.7053 0.7089 -229.2989 174.8202)"/><ellipse cx="303.395" cy="74.884" fill="#DCF9F6" rx="4.8" ry=".8" transform="matrix(0.6999 -0.7143 0.7143 0.6999 37.5702 239.1812)"/><ellipse cx="303.501" cy="75.23" fill="#DCF9F6" rx="4.8" ry=".8" transform="matrix(0.6999 0.7143 -0.7143 0.6999 144.8238 -194.2028)"/><ellipse cx="215.49" cy="446.725" fill="#DCF9F6" rx="4.8" ry=".8" transform="matrix(0.7035 -0.7107 0.7107 0.7035 -253.5927 285.6034)"/><ellipse cx="215.804" cy="447.211" fill="#DCF9F6" rx="4.8" ry=".8" transform="matrix(0.7035 0.7107 -0.7107 0.7035 381.818 -20.7724)"/><circle cx="249.6" cy="250" r="160" fill="#DCF9F6"/></g><path fill="#95BFB9" d="M249.6,410c-88,0-160-72-160-160s72-160,160-160"/><path fill="#CAEDE7" d="M249.6,410c-88,0-86.4-72-86.4-160s-1.6-160,86.4-160"/><g><circle cx="138.4" cy="165.2" r="9.6" fill="#78A8A0"/><circle cx="124.8" cy="201.2" r="1.6" fill="#78A8A0"/><circle cx="189.6" cy="222" r="29.6" fill="#78A8A0"/><circle cx="202.4" cy="157.2" r="8" fill="#78A8A0"/></g><circle cx="257.6" cy="153.2" r="2.4" fill="#C3E5E0"/><g><circle cx="278.4" cy="126" r="2.4" fill="#78A8A0"/><circle cx="201.6" cy="127.6" r="4" fill="#78A8A0"/><circle cx="233.6" cy="114" r="1.6" fill="#78A8A0"/></g><g><circle cx="270.4" cy="206" r="6.4" fill="#C3E5E0"/><circle cx="318.4" cy="202" r="4" fill="#C3E5E0"/><circle cx="328.8" cy="156.4" r="6.4" fill="#C3E5E0"/><circle cx="300.8" cy="285.2" r="17.6" fill="#C3E5E0"/></g><g><circle cx="156" cy="295.6" r="5.6" fill="#78A8A0"/><circle cx="213.6" cy="271.6" r="2.4" fill="#78A8A0"/><circle cx="241.6" cy="331.6" r="9.6" fill="#78A8A0"/><circle cx="124.8" cy="254.8" r="6.4" fill="#78A8A0"/></g><circle cx="267.2" cy="250.8" r="1.6" fill="#C3E5E0"/><circle cx="344" cy="254" r="4" fill="#95BFB9"/><g><circle cx="174.4" cy="339.6" r="9.6" fill="#78A8A0"/><circle cx="193.6" cy="305.2" r="3.2" fill="#78A8A0"/></g><circle cx="292.8" cy="342.8" r="3.2" fill="#C3E5E0"/><g><circle cx="241.6" cy="369.2" r="2.4" fill="#78A8A0"/><circle cx="201.6" cy="365.2" r="1.6" fill="#78A8A0"/></g><circle cx="332.8" cy="328.4" r="6.4" fill="#95BFB9"/><circle cx="284" cy="375.6" r="4" fill="#C3E5E0"/><circle cx="245.6" cy="289.2" r="3.2" fill="#78A8A0"/><circle cx="353.6" cy="300.4" r="6.4" fill="#95BFB9"/><circle cx="134.4" cy="323.6" r="5.6" fill="#78A8A0"/><circle cx="309.6" cy="241.2" r="7.2" fill="#C3E5E0"/></svg>