<svg xmlns="http://www.w3.org/2000/svg" xmlns:xlink="http://www.w3.org/1999/xlink" id="Layer_1" x="0" y="0" enable-background="new 0 0 512 512" version="1.1" viewBox="0 0 512 512" xml:space="preserve"><circle cx="256" cy="256" r="256" fill="#8282DC"/><g opacity=".4"><circle cx="256" cy="256" r="200" fill="#9FA5EB"/></g><g opacity=".65"><circle cx="256" cy="256" r="152" fill="#9FA5EB"/></g><path fill="#5F5FA5" d="M319,175c0,0-56.01-41-61.667-41C250.667,134,166,203,166,203s-39-11-47-10s-19,17-24,15	s-33-15-39-13s-37,39-37,39v54h300V175z"/><path fill="#5A5A82" d="M478.659,129.727C462.835,118.416,440.275,111.363,435,114c-7.333,3.667-12.667,22.667-16.817,24.074	c-3.945,1.338-25.079-10.592-30.183-9.741c-8,1.333-15.667,9-21.667,12c-3.771,1.886-17.033-5.851-25-4.333	c-7,1.333-15.667,18.667-20,17.333c-5.159-1.588-29.428-11.135-33.333-9.333c-6.5,3-53.01,45-58.667,45	c-3.667,0-15.667-24.667-19-28.667c-3.333-4-21-7.569-23.083-5.833c-3,2.5-9.25,19.25-12,21.25c-3.145,2.287-14,7.5-20.583,10.917	c-6.926,3.594-22.212,84.159-30,90c-5.333,4-61.383-12.334-71.333-18.667c-7.333-4.667-29.884-54.044-39.624-84.626	C4.867,199.305,0,227.076,0,256c0,25.494,3.778,50.095,10.716,73.333l479.192,30.68C504.067,328.222,512,293.047,512,256	C512,210.066,499.842,166.997,478.659,129.727z"/><path fill="#6464C8" d="M30.011,376C73.027,456.867,158.013,512,256,512s182.973-55.133,225.989-136H30.011z"/><g opacity=".2"><path fill="#9FA5EB" d="M66.896,376C106.639,438.497,176.451,480,256,480s149.361-41.503,189.104-104H66.896z"/></g><g opacity=".2"><path fill="#9FA5EB" d="M152.202,408H208v-24h-77.471C136.891,392.751,144.19,400.763,152.202,408z"/></g><path fill="#5F5FA5" d="M34.333,384h443.333c8.684-15.005,15.886-30.964,21.411-47.697	c-20.796,0.028-63.096-9.91-99.078-24.303c-40-16-88-48-232-16c-48.841,10.854-104,24-161.978,15.151	C11.731,337.14,21.389,361.632,34.333,384z"/><path fill="#5A5A82" d="M136,416h319.773c14.156-17.652,26.028-37.204,35.152-58.237C234.659,332.619,136,416,136,416z"/><g><rect width="75.37" height="69.57" x="256.44" y="324" fill="#5F5FA5"/><rect width="65.27" height="65.787" x="353.66" y="327.78" fill="#5F5FA5"/></g><g><polygon fill="#5A5A82" points="405.333 311.337 367.262 311.337 352.033 327.784 420.562 327.784"/><polygon fill="#5A5A82" points="363.34 350.527 342.782 325.856 330.447 325.856 318.112 325.856 297.553 350.527 301.665 350.527 301.665 393.571 359.229 393.571 359.229 350.527"/></g><rect width="9.251" height="16.447" x="367.62" y="361" fill="#FFF"/><g><rect width="9.251" height="16.447" x="381.67" y="361" fill="#9A9FE8"/><rect width="9.251" height="16.447" x="395.72" y="361" fill="#9A9FE8"/><rect width="9.251" height="12.335" x="367.62" y="338.06" fill="#9A9FE8"/></g><rect width="9.251" height="12.335" x="381.67" y="338.06" fill="#FFF"/><rect width="9.251" height="12.335" x="395.72" y="338.06" fill="#9A9FE8"/><polygon fill="#5A5A82" points="248.717 324.058 208.647 324.058 192.619 340.504 196.045 340.504 196.045 393.571 261.319 393.571 261.319 340.504 264.745 340.504"/><rect width="9.251" height="12.272" x="210.01" y="367.23" fill="#FFF"/><g><rect width="9.251" height="12.272" x="224.06" y="367.23" fill="#9A9FE8"/><rect width="9.251" height="12.272" x="238.1" y="367.23" fill="#9A9FE8"/><rect width="9.251" height="12.335" x="210.01" y="346.67" fill="#9A9FE8"/><rect width="9.251" height="12.335" x="224.06" y="346.67" fill="#9A9FE8"/></g><rect width="9.251" height="12.335" x="238.1" y="346.67" fill="#FFF"/><polygon fill="#5A5A82" points="327.441 302.491 327.441 307.225 260.805 307.225 260.805 302.491 256.436 302.491 256.436 324 331.81 324 331.81 302.491"/><rect width="9.251" height="16.447" x="270.14" y="360.1" fill="#9A9FE8"/><g><rect width="9.251" height="16.447" x="286.76" y="360.1" fill="#FFF"/><rect width="9.251" height="12.335" x="270.14" y="337.16" fill="#FFF"/></g><g><rect width="9.251" height="12.335" x="286.76" y="337.16" fill="#9A9FE8"/><rect width="12.335" height="16.447" x="314" y="361" fill="#9A9FE8"/></g><rect width="12.335" height="16.447" x="334.56" y="361" fill="#FFF"/><polygon fill="#5A5A82" points="160 363.658 150.285 352 144.455 352 138.626 352 128.911 363.658 130.854 363.658 130.854 384 158.057 384 158.057 363.658"/><rect width="5.829" height="7.772" x="136.68" y="368.61" fill="#FFF"/><rect width="5.829" height="7.772" x="146.4" y="368.61" fill="#9A9FE8"/><rect width="41.571" height="34.909" x="93.39" y="349.09" fill="#5F5FA5"/><g><polygon fill="#5A5A82" points="126.301 339.11 102.054 339.11 92.356 349.585 136 349.585"/><polygon fill="#5A5A82" points="99.557 356.586 86.464 340.874 78.608 340.874 70.752 340.874 57.658 356.586 60.277 356.586 60.277 384 96.938 384 96.938 356.586"/></g><rect width="7.856" height="10.475" x="68.13" y="363.26" fill="#9A9FE8"/><rect width="7.856" height="10.475" x="81.23" y="363.26" fill="#FFF"/><g><rect width="5.892" height="11.349" x="102.28" y="366.81" fill="#9A9FE8"/><rect width="5.892" height="11.349" x="111.23" y="366.81" fill="#9A9FE8"/></g><g><rect width="5.892" height="11.349" x="120.18" y="366.81" fill="#FFF"/><rect width="5.892" height="7.856" x="102.28" y="354.87" fill="#FFF"/></g><g><rect width="5.892" height="7.856" x="111.23" y="354.87" fill="#9A9FE8"/><rect width="5.892" height="7.856" x="120.18" y="354.87" fill="#9A9FE8"/></g><g><circle cx="267" cy="75" r="5" fill="#FFF"/><circle cx="285" cy="125" r="5" fill="#FFF"/><circle cx="117" cy="147" r="5" fill="#FFF"/><circle cx="195" cy="45" r="5" fill="#FFF"/></g><g opacity=".7"><circle cx="235" cy="91" r="5" fill="#9FA5EB"/></g><g opacity=".7"><circle cx="251" cy="35" r="5" fill="#9FA5EB"/></g><g opacity=".7"><circle cx="363" cy="61" r="5" fill="#9FA5EB"/></g><g opacity=".7"><circle cx="141" cy="75" r="5" fill="#9FA5EB"/></g><g opacity=".7"><circle cx="197" cy="91" r="5" fill="#9FA5EB"/></g><g opacity=".7"><circle cx="75" cy="115" r="5" fill="#9FA5EB"/></g><path fill="#6464C8" d="M136,416c0,0,114.866,28.682,296.926,24.921c7.503-7.181,14.604-14.774,21.191-22.814	c0.426-0.68,0.805-1.337,1.422-2.107H136z"/></svg>